<svg id="SvgjsSvg1081" width="288" height="288" xmlns="http://www.w3.org/2000/svg" version="1.1" xmlns:xlink="http://www.w3.org/1999/xlink" xmlns:svgjs="http://svgjs.com/svgjs"><defs id="SvgjsDefs1082"></defs><g id="SvgjsG1083"><svg xmlns="http://www.w3.org/2000/svg" enable-background="new 0 0 24 24" viewBox="0 0 24 24" width="288" height="288"><path d="M12,16.384c-0.092,0-0.185-0.025-0.266-0.077l-6.625-4.168c-0.229-0.145-0.302-0.444-0.165-0.678l6.625-11.216C11.66,0.093,11.823,0,12,0l0,0c0.177,0,0.341,0.094,0.431,0.246l6.62,11.216c0.137,0.233,0.065,0.533-0.164,0.678l-6.62,4.168C12.185,16.358,12.092,16.384,12,16.384z M6.053,11.552L12,15.293l5.942-3.742L12,1.483L6.053,11.552z" fill="#2dd4bf" class="color000 svgShape"></path><path d="M12,24c-0.161,0-0.312-0.077-0.406-0.208l-6.625-9.195c-0.14-0.194-0.123-0.46,0.042-0.635c0.164-0.174,0.429-0.208,0.63-0.081L12,17.882l6.359-4.001c0.203-0.127,0.467-0.093,0.63,0.081c0.164,0.174,0.181,0.44,0.042,0.635l-6.625,9.195C12.312,23.923,12.161,24,12,24z M7.281,16.095L12,22.645l4.719-6.55l-4.453,2.802c-0.162,0.103-0.37,0.103-0.532,0L7.281,16.095z" fill="#2dd4bf" class="color000 svgShape"></path></svg></g></svg>