<svg version="1.2" xmlns="http://www.w3.org/2000/svg" viewBox="0 0 282 282" width="282" height="282">
	<title>logo-svg</title>
	<style>
		.s0 { fill: #2dd4bf } 
	</style>
	<path id="Layer" fill-rule="evenodd" class="s0" d="m256.8 156.5c2 64.1-48 117.5-111.4 119.5 37.8-2 68.8-31.7 72.2-69.5-20.9 31-55.3 50.6-93.1 51.3-63.5 1.3-116.8-49.3-118.2-112.8 2.1 38.5 31.8 69.6 70.2 72.9-30.3-20.2-49.2-54-50.6-90.4-2.7-64.1 46.6-118.8 110.7-121.5-38.5 2-69.5 32.4-72.9 70.9 20.3-31.8 55.4-50.7 93.2-52 64.1-2 116.7 48.6 118.8 112-2.1-38.4-32.4-69.5-70.9-72.9 31.7 20.3 50.6 55.4 52 92.5zm-82.4 18.9c18.2-18.2 18.2-49.2 0-67.5-18.2-18.2-49.3-18.2-67.5 0-18.2 18.3-18.9 48.6 0 67.5 8.8 9.5 20.9 14.2 33.8 14.2 12.8 0 24.9-4.7 33.7-14.2z"/>
</svg>